<svg width="376" height="57" viewBox="0 0 376 57" fill="none" xmlns="http://www.w3.org/2000/svg">
<path d="M0 55.1713L15.4123 1.08179H30.0539L45.3892 55.1713H36.8353L33.2905 42.4216H12.1757L8.63088 55.1713H0ZM14.2564 34.6945H31.2099L23.3496 6.25893H22.1166L14.2564 34.6945Z" fill="#2C2C2C"/>
<path d="M71.9627 55.1713V1.08179H93.3858C96.6737 1.08179 99.6021 1.75147 102.171 3.09083C104.791 4.37867 106.82 6.23317 108.259 8.65431C109.748 11.0239 110.493 13.883 110.493 17.2314V18.2359C110.493 21.5843 109.723 24.469 108.182 26.8902C106.692 29.3113 104.662 31.1658 102.094 32.4537C99.525 33.7415 96.6223 34.3854 93.3858 34.3854H80.2853V55.1713H71.9627ZM80.2853 26.8129H92.5381C95.4664 26.8129 97.804 26.0402 99.5507 24.4948C101.297 22.9494 102.171 20.8373 102.171 18.1586V17.3859C102.171 14.6557 101.297 12.5178 99.5507 10.9724C97.804 9.42702 95.4664 8.65431 92.5381 8.65431H80.2853V26.8129Z" fill="#2C2C2C"/>
<path d="M157.108 57C150.48 57 145.215 55.1455 141.31 51.4365C137.406 47.676 135.453 42.2671 135.453 35.2097V22.5373C135.453 15.4799 137.406 10.0967 141.31 6.38771C145.215 2.6272 150.48 0.746951 157.108 0.746951C163.735 0.746951 169.001 2.6272 172.905 6.38771C176.861 10.0967 178.839 15.4799 178.839 22.5373V35.2097C178.839 42.2671 176.861 47.676 172.905 51.4365C169.001 55.1455 163.735 57 157.108 57ZM157.108 49.5047C161.372 49.5047 164.66 48.2684 166.972 45.7958C169.283 43.2716 170.439 39.8459 170.439 35.5188V22.2282C170.439 17.901 169.283 14.5011 166.972 12.0285C164.66 9.50429 161.372 8.24221 157.108 8.24221C152.946 8.24221 149.684 9.50429 147.321 12.0285C144.958 14.5011 143.776 17.901 143.776 22.2282V35.5188C143.776 39.8459 144.958 43.2716 147.321 45.7958C149.684 48.2684 152.946 49.5047 157.108 49.5047Z" fill="#2C2C2C"/>
<path d="M274.475 55.1713V1.08179H282.797V47.5987H308.767V55.1713H274.475Z" fill="#2C2C2C"/>
<path d="M354.269 56.2531C347.641 56.2531 342.376 54.3986 338.471 50.6896C334.567 46.9291 332.614 41.5201 332.614 34.4627V21.7903C332.614 14.7329 334.567 9.34975 338.471 5.64076C342.376 1.88025 347.641 0 354.269 0C360.896 0 366.162 1.88025 370.066 5.64076C374.022 9.34975 376 14.7329 376 21.7903V34.4627C376 41.5201 374.022 46.9291 370.066 50.6896C366.162 54.3986 360.896 56.2531 354.269 56.2531ZM354.269 48.7578C358.533 48.7578 361.821 47.5215 364.133 45.0488C366.444 42.5246 367.6 39.099 367.6 34.7718V21.4812C367.6 17.1541 366.444 13.7542 364.133 11.2815C361.821 8.75734 358.533 7.49525 354.269 7.49525C350.107 7.49525 346.845 8.75734 344.482 11.2815C342.119 13.7542 340.937 17.1541 340.937 21.4812V34.7718C340.937 39.099 342.119 42.5246 344.482 45.0488C346.845 47.5215 350.107 48.7578 354.269 48.7578Z" fill="#2C2C2C"/>
<path d="M209.019 55.1713V1.08179H217.341V47.5987H243.311V55.1713H209.019Z" fill="#2C2C2C"/>
</svg>
